<svg xmlns="http://www.w3.org/2000/svg" width="38.401" height="16"><path id="icon" d="M28.8 16a8.009 8.009 0 0 1-8-8c0-.265.014-.534.04-.8h-.04a.5.5 0 0 0-.168-.324A2.055 2.055 0 0 0 19.2 6.4c-.977 0-1.6.474-1.6.8h-.039c.026.272.039.542.039.8a8 8 0 0 1-16 0 1.6 1.6 0 0 1 0-3.2h.665a8 8 0 0 1 14.206-.9 5.683 5.683 0 0 1 5.459 0 8 8 0 0 1 14.2.9h.67a1.6 1.6 0 0 1 0 3.2 8.01 8.01 0 0 1-8 8zm0-12.8A4.8 4.8 0 1 0 33.6 8a4.806 4.806 0 0 0-4.8-4.8zm-19.2 0A4.8 4.8 0 1 0 14.4 8a4.806 4.806 0 0 0-4.8-4.8z" fill="#0058cc"/></svg>