<svg xmlns="http://www.w3.org/2000/svg" width="16" height="16.001"><path id="icon" d="M11.463 16a8.783 8.783 0 0 1-3.806-1.005 14.866 14.866 0 0 1-3.844-2.808A13.4 13.4 0 0 1 .254 6.365c-.532-2.02-.223-3.735.871-4.829.39-.4.516-.523.9-.905A2.3 2.3 0 0 1 3.642 0a2.228 2.228 0 0 1 1.58.632A24.965 24.965 0 0 1 7.38 3.391a1.371 1.371 0 0 1-.086 1.893 4.36 4.36 0 0 1-.356.416c-.065.07-.117.122-.221.226l-.48.481a1.772 1.772 0 0 0 .148.38 6.764 6.764 0 0 0 1.227 1.6 6.743 6.743 0 0 0 1.6 1.227 1.867 1.867 0 0 0 .38.148l.48-.481a4.63 4.63 0 0 1 .776-.672 1.726 1.726 0 0 1 .937-.319 1.211 1.211 0 0 1 .819.326 22.812 22.812 0 0 1 2.768 2.17 2.323 2.323 0 0 1 .006 3.169 28.93 28.93 0 0 1-.914.914A4.127 4.127 0 0 1 11.463 16zM3.635 2a.328.328 0 0 0-.2.052c-.375.368-.5.493-.888.888-.632.632-.721 1.834-.244 3.3a11.891 11.891 0 0 0 2.926 4.533C7.184 12.733 9.627 14 11.449 14a2.226 2.226 0 0 0 1.615-.555c.346-.333.635-.623.861-.862a.339.339 0 0 0 .006-.409 20.732 20.732 0 0 0-2.2-1.719 6.953 6.953 0 0 0-.249.242l-.6.6a1.677 1.677 0 0 1-1.225.511c-1.213 0-2.555-1.088-3.467-2a7.687 7.687 0 0 1-1.816-2.571 1.876 1.876 0 0 1 .332-2.129l.6-.6c.095-.094.137-.138.188-.191l.055-.058a21.756 21.756 0 0 0-1.732-2.204A.268.268 0 0 0 3.635 2z" fill="#00306e"/></svg>